# xmcd
#
# Track frame offsets:
#	150
#	14832
#	28975
#	44647
#	58192
#	72732
#	94805
#	106362
#	126455
#	134510
#	146400
#	158930
#	173090
#	193165
#
# Disc length: 2754 seconds
#
# Revision: 0
# Processed by: cddbd v1.5.2PL0 Copyright (c) Steve Scherf et al.
# Submitted via: EasyCDDAExtractor 16.0.6.1
#
DISCID=e30ac00e
DTITLE=Γλυκερία - Χάραμα-2000, Γλυκερία
DYEAR=2007
DGENRE=Ποικίλη
TTITLE0=Γλυκερία - Χαρικλάκι [Παναγιώτης Τούντας]
TTITLE1=Γλυκερία - Ένα λεπτό περιπτερά [Τάκης Μουσαφίρης-Μαριανίνα Κριεζή]
TTITLE2=Γλυκερία - Καλημέρα [Νίκος Παπάζογλου-Τάκης Σιμώτας]
TTITLE3=Γλυκερία-Ιακωβίδης Αγάθωνας-χορωδία - Αεροπλάνο θα πάρω [Παναγιώτης Το
TTITLE3=ύντας]
TTITLE4=Γλυκερία - Ό,τι άναψε, θα σβήσει [Νίκος Καρανικόλας-Τάκης Κωλέττης]
TTITLE5=Γλυκερία - Γλυκέ μου τύραννε [Γιάννης Γαβαλάς-Γιώργος Κυριαζής]
TTITLE6=Γλυκερία - Σβήσε τη φλόγα [Μανώλης Χιώτης]
TTITLE7=Γλυκερία - Δε θα ξαναγαπήσω [Μάνος Λοΐζος-Λευτέρης Παπαδόπουλος]
TTITLE8=Γλυκερία - Η γυναίκα η μουρμούρα [Βασίλης Τσιτσάνης]
TTITLE9=Γλυκερία - Η γκρινιάρα [Βασίλης Τσιτσάνης]
TTITLE10=Γλυκερία - Η μάννα μου με δέρνει [Νίκος Ρούτσος]
TTITLE11=Γλυκερία - Βόλο, Λάρισα, Καρδίτσα (Βόλτα στην Ελλάδα) [Βασί. Τσιτσάνη
TTITLE11=ς-Χρ. Κολοκοτρώνης]
TTITLE12=Γλυκερία-Ιακωβίδης Αγ.-ΊμβριοςΠ.-ΠαπάζογλουΣ.-ΚαραγιάννηςΝ. - Πές μου
TTITLE12=παππού [Άκης Πάνου]
TTITLE13=Γλυκερία-Ιακωβίδης Αγ.-ΊμβριοςΠ.-ΠαπάζογλουΣ.-ΚαραγιάννηςΝ. - Χαράματ
TTITLE13=α στο Χάραμα [Στέλιος Φωτιάδης-Λευτέρης Χαψιάδης]
EXTD=
EXTT0=
EXTT1=
EXTT2=
EXTT3=
EXTT4=
EXTT5=
EXTT6=
EXTT7=
EXTT8=
EXTT9=
EXTT10=
EXTT11=
EXTT12=
EXTT13=
PLAYORDER=
